<?xml version="1.0" encoding="utf-8"?>
<!-- Generator: Adobe Illustrator 17.1.0, SVG Export Plug-In . SVG Version: 6.00 Build 0)  -->
<!DOCTYPE svg PUBLIC "-//W3C//DTD SVG 1.1//EN" "http://www.w3.org/Graphics/SVG/1.1/DTD/svg11.dtd">
<svg version="1.1" id="Layer_1" xmlns="http://www.w3.org/2000/svg" xmlns:xlink="http://www.w3.org/1999/xlink" x="0px" y="0px"
	 viewBox="0 0 500 278.7" enable-background="new 0 0 500 278.7" xml:space="preserve">
<g>
	<g>
		<g>
			<path fill="#99B52A" d="M14.2,201.7c2.7-3.8,8.8-5.7,18.1-5.7l14.5-0.1v7.9H31.5c-4,0.1-6.9,0.9-8.8,2.6
				c-1.9,1.6-2.9,4.5-3.1,8.5l27.2-0.1v7.8H19.6v18.5h-9.5v-20.8C10.1,211.7,11.4,205.5,14.2,201.7z"/>
			<path fill="#99B52A" d="M76.5,196c0.5,0,0.9,0.1,1.4,0.1c0.4,0,0.9,0,1.4,0.1c1.7,0.1,3.4,0.4,5.1,0.8c1.7,0.5,3.1,1.3,4.4,2.6
				c1.1,1.1,2,2.4,2.6,3.8c0.6,1.5,0.9,3,1,4.5c0,0.3,0,0.6,0,0.9c0,0.3,0,0.6,0,0.9c0,3.1-0.7,5.9-2.2,8.2c-1.5,2.3-3.8,3.8-7,4.6
				l11.3,18.8H83.7l-9.9-17.8H62.6v17.8h-9.5V196H76.5z M74.2,204H62.6v11.4h11.6c0.1,0,0.2,0.1,0.3,0.1c0.1,0,0.2,0,0.3,0
				c2,0,3.9-0.3,5.5-0.9c1.7-0.6,2.5-2.2,2.4-4.8c0-2.7-0.9-4.3-2.6-4.8C78.3,204.4,76.4,204.1,74.2,204L74.2,204z"/>
			<path fill="#99B52A" d="M111.1,206.7c-1.7,1.8-2.7,4.4-2.9,7.8l26.3-0.1v7.9h-26.4c0,1.6,0.2,3.1,0.5,4.6c0.4,1.5,1.1,2.8,2.2,4
				c1,1.1,2.1,1.8,3.4,2.1c1.3,0.3,2.7,0.4,4.1,0.4c0.1,0,0.2,0,0.3,0c0.1,0,0.2,0,0.3,0l15.6-0.1v7.9h-16.1c-2.6,0-5-0.2-7.4-0.7
				c-2.4-0.5-4.6-1.5-6.7-3.2c-2.5-2.1-4.3-4.6-5.3-7.5s-1.6-6-1.6-9.1c0-0.7-0.1-1.3,0-2c0-0.6,0.1-1.3,0.1-1.9
				c0.5-7.1,2.4-12.4,5.8-15.7c3.4-3.4,8.6-5,15.4-5l15.8-0.1v7.9h-15.6C115.4,203.9,112.8,204.8,111.1,206.7z"/>
			<path fill="#99B52A" d="M153.7,206.7c-1.7,1.8-2.7,4.4-2.9,7.8l26.3-0.1v7.9h-26.4c0,1.6,0.2,3.1,0.5,4.6c0.4,1.5,1.1,2.8,2.2,4
				c1,1.1,2.1,1.8,3.4,2.1c1.3,0.3,2.7,0.4,4.1,0.4c0.1,0,0.2,0,0.3,0c0.1,0,0.2,0,0.3,0l15.6-0.1v7.9h-16.1c-2.6,0-5-0.2-7.4-0.7
				c-2.4-0.5-4.6-1.5-6.7-3.2c-2.5-2.1-4.3-4.6-5.3-7.5c-1-3-1.6-6-1.6-9.1c0-0.7-0.1-1.3,0-2c0-0.6,0.1-1.3,0.1-1.9
				c0.5-7.1,2.4-12.4,5.8-15.7c3.4-3.4,8.6-5,15.4-5l15.8-0.1v7.9h-15.6C158,203.9,155.4,204.8,153.7,206.7z"/>
			<path fill="#99B52A" d="M190.5,196l10.5,34.8l8.8-34.8H221l10.1,34.8l9.8-34.8h9.8l-14,45.2H225l-9.6-33.8l-8.4,33.8h-11.6
				l-15-45.2H190.5z"/>
			<path fill="#99B52A" d="M255.1,241.2V196h9.9v45.2H255.1z"/>
			<path fill="#99B52A" d="M284.4,240.5c-2.5-0.4-4.8-1.8-6.9-4c-1.8-1.9-2.9-4-3.4-6.4c-0.5-2.4-0.7-4.8-0.7-7.2v-27h9.5v24.8
				c0,4.2,0.4,7.4,1.4,9.6c1,2.2,3.9,3.3,8.9,3.3l11.2-0.1v7.5h-12C289.6,241.2,286.9,241,284.4,240.5z"/>
			<path fill="#99B52A" d="M319.4,240.5c-2.5-0.4-4.8-1.8-6.9-4c-1.8-1.9-2.9-4-3.4-6.4c-0.5-2.4-0.7-4.8-0.7-7.2v-27h9.5v24.8
				c0,4.2,0.4,7.4,1.4,9.6c1,2.2,3.9,3.3,8.9,3.3l11.2-0.1v7.5h-12C324.6,241.2,321.9,241,319.4,240.5z"/>
			<path fill="#99B52A" d="M391.9,196l19.3,45.2h-10.6l-4.2-10.8h-19.6l-4,10.8h-10l19.1-45.2H391.9z M379.9,222.4h13.5l-6.9-17.4
				L379.9,222.4z"/>
			<path fill="#99B52A" d="M424.1,208.3c-1.3,3-2.1,6.4-2.2,10.4c0,0.7,0,1.4,0,2s0,1.4,0.1,2.1c0.1,1.5,0.4,2.9,0.8,4.3
				c0.4,1.4,1.1,2.7,2.1,3.7c1,1.1,2.2,1.8,3.5,2.1c1.3,0.3,2.7,0.4,4.1,0.4c0.1,0,0.2,0,0.3,0c0.1,0,0.2,0,0.3,0l15.6-0.1v7.9
				h-16.1c-2.6,0-5-0.2-7.4-0.7c-2.4-0.5-4.6-1.5-6.7-3.2c-2.5-2.1-4.3-4.6-5.3-7.5c-1-3-1.6-6-1.6-9.1c0-0.7-0.1-1.3,0-2
				c0-0.6,0.1-1.3,0.1-1.9c0.5-7.1,2.4-12.4,5.8-15.7c3.4-3.4,8.6-5,15.4-5l15.8-0.1v7.7H433C428.4,203.8,425.4,205.3,424.1,208.3z"
				/>
			<path fill="#99B52A" d="M450.9,203.9V196h39v7.9h-14.7v37.3h-9.8v-37.3H450.9z"/>
		</g>
		<g>
			<g>
				<path fill="#603813" d="M108.7,260.6c-0.7-1-2-1.6-3.5-1.6c-1.9,0-3.3,0.8-3.3,2.1c0,1.4,1.6,1.8,3.4,2c2.9,0.4,5.7,1.2,5.7,4.4
					c0,3.2-2.9,4.4-5.9,4.4c-2.7,0-4.8-0.8-6.1-3.2l1.7-1.1c1,1.7,2.8,2.3,4.4,2.3c1.7,0,3.6-0.6,3.6-2.3c0-1.5-1.6-2.1-3.6-2.3
					c-2.8-0.4-5.5-1.1-5.5-4.1c0-2.9,2.9-4.1,5.5-4.1c2,0,4.1,0.5,5.3,2.4L108.7,260.6z"/>
				<path fill="#603813" d="M128.1,271.6h-10.5c0-4.7,0-9.4,0-14.2h10.4v2.2h-8.1v3.8h7.8v2.1h-7.8v3.8h8.2V271.6z"/>
				<path fill="#603813" d="M147.3,271.6h-2.6l-4.3-4.9h-3v4.9h-2.3v-14.2c2.2,0,4.4,0,6.6,0c3.3,0,5,2.2,5,4.6c0,2-1.1,4-3.8,4.4
					l4.2,4.7L147.3,271.6z M137.3,259.5v5.1h4.3c1.9,0,2.7-1.2,2.7-2.5c0-1.3-0.8-2.6-2.7-2.6H137.3z"/>
				<path fill="#603813" d="M160,271.7h-2.4l-5.9-14.2h2.5l4.5,11.5l4.5-11.5h2.5L160,271.7z"/>
				<path fill="#603813" d="M171.9,271.6v-14.2h2.2v14.2H171.9z"/>
				<path fill="#603813" d="M193.7,269.8c-1.5,1.4-3.3,2.1-5.3,2.1c-5.1,0-7.4-3.5-7.5-7.3c0-3.7,2.4-7.4,7.5-7.4
					c1.9,0,3.7,0.7,5.2,2.1l-1.5,1.5c-1-1-2.3-1.5-3.7-1.5c-3.6,0-5.2,2.6-5.2,5.3c0,2.6,1.6,5.2,5.2,5.2c1.3,0,2.8-0.5,3.8-1.5
					L193.7,269.8z"/>
				<path fill="#603813" d="M210.5,271.6h-10.5c0-4.7,0-9.4,0-14.2h10.4v2.2h-8.1v3.8h7.8v2.1h-7.8v3.8h8.2V271.6z"/>
				<path fill="#603813" d="M240.2,264.6c0,3.8-2.3,7.3-7.2,7.3c-4.9,0-7.2-3.6-7.2-7.3c0-4.3,3-7.4,7.3-7.4
					C237.8,257.2,240.2,260.8,240.2,264.6z M232.9,269.8c3.5,0,5-2.5,5-5.2c0-2.6-1.5-5.3-5-5.4c-3.3,0-5,2.3-5,5.4
					C228,267.1,229.4,269.8,232.9,269.8z"/>
				<path fill="#603813" d="M246.9,271.6v-14.1h10v2.2h-7.7v4.3h7.4v2.1h-7.4v5.5H246.9z"/>
				<path fill="#603813" d="M282.1,271.6v-5.9h-7.5v5.9h-2.3v-14.2h2.3v6.2h7.5v-6.2h2.2v14.2H282.1z"/>
				<path fill="#603813" d="M303.7,257.5v8.3c0,4.2-2.8,6.3-6.2,6.1c-3.2-0.1-5.8-2.1-5.8-6.1v-8.3h2.2v8.3c0,2.6,1.5,4,3.6,4
					c2.3,0.1,3.9-1.4,3.9-4v-8.3H303.7z"/>
				<path fill="#603813" d="M323.5,260.8l-4.8,6.7h-0.5l-4.8-6.7v10.9h-2.3v-14.2c0.9,0,1.7,0,2.6,0l4.7,6.6l4.7-6.6h2.6v14.2h-2.3
					V260.8z"/>
				<path fill="#603813" d="M333.4,271.6v-14.2h2.2v14.2H333.4z"/>
				<path fill="#603813" d="M353,267.5v-10.1h2.3v14.2h-1.7l-8-10v10h-2.3v-14.2h1.7L353,267.5z"/>
				<path fill="#603813" d="M362.8,271.6v-14.2h2.2v14.2H362.8z"/>
				<path fill="#603813" d="M375.9,259.5h-4.7v-2c4.1,0,7.5,0,11.6,0v2h-4.6v12.1h-2.3V259.5z"/>
				<path fill="#603813" d="M394.1,263.7l4-6.3h2.7v0.1l-5.6,8.3v5.8H393v-5.8l-5.5-8.3v-0.1h2.7L394.1,263.7z"/>
			</g>
			<rect x="10.1" y="263.3" fill="#603813" width="79.9" height="2.3"/>
			<rect x="410" y="263.3" fill="#603813" width="79.9" height="2.3"/>
		</g>
	</g>
	<g>
		<path fill="#99B52A" d="M250,6.8c-47.3,0-85.6,38.3-85.6,85.6c0,37.7,24.4,69.7,58.3,81.1c-30.2-11.1-51.8-40.2-51.8-74.3
			c0-43.7,35.4-79.1,79.1-79.1c43.7,0,79.1,35.4,79.1,79.1c0,34.1-21.6,63.2-51.8,74.3c33.9-11.4,58.3-43.4,58.3-81.1
			C335.6,45.1,297.3,6.8,250,6.8z"/>
		<g>
			<path fill="#00A551" d="M228.9,59.3C228.9,59.4,229,59.4,228.9,59.3c-0.7-2.8,0.4-6.5-1.9-8.9c-0.4-0.3-0.9-0.6-1.4-0.9
				C229.7,51.7,228.1,56.1,228.9,59.3z"/>
			<path fill="#00A551" d="M222.2,45.8c0,2.2-0.9,4.5-0.9,5.6c0,0,0,0,0,0.1C221.4,50.3,222.2,48,222.2,45.8
				C222.2,45.8,222.2,45.8,222.2,45.8z"/>
			<path fill="#00A551" d="M222.2,42.1c5.6,0,10.1,6.1,10.2,11.1c0,0,0-0.1,0-0.1c0-5-4.5-11.2-10.2-11.2c-0.4,0-0.6,0.2-0.5,0.5
				C221.7,42.2,221.8,42.1,222.2,42.1z"/>
			<path fill="#00A551" d="M221.6,42.4c-0.1,0.5,0.6,1.7,0.6,3.4c0,0,0-0.1,0-0.1C222.2,44.1,221.7,43,221.6,42.4z"/>
			<path fill="#00A551" d="M229,59.5c0-0.1,0-0.1,0-0.2c-4-1-7.6-4.3-7.6-7.9c0,0,0,0.1,0,0.1C221.3,55.2,224.9,58.5,229,59.5z"/>
			<path fill="#00A551" d="M225.7,49.5c0.6,0.3,1,0.6,1.4,1c2.7,2,4.1,4.9,4.4,7.9c0.5-1.7,0.8-3.4,0.8-5.2c0,0,0,0,0-0.1
				c0,1.7-0.4,3.4-0.8,5.1C231.1,54.8,229.3,51.4,225.7,49.5z"/>
			<path fill="#00A551" d="M228.9,59.3c-0.8-3.3,0.7-7.6-3.2-9.7c0.5,0.3,0.9,0.5,1.4,0.9c-0.4-0.4-0.8-0.7-1.4-1
				c3.6,1.9,5.4,5.3,5.8,8.7c0.5-1.6,0.8-3.4,0.8-5.1c0-5-4.6-11.1-10.2-11.1c-0.4,0-0.5,0.1-0.5,0.3c0.1,0.6,0.6,1.7,0.6,3.3
				c0,0,0,0.1,0,0.1c0,0,0,0,0,0.1c0,2.2-0.9,4.4-0.9,5.6C221.4,55,224.9,58.3,228.9,59.3z"/>
			<path fill="#00A551" d="M268.7,58.6c2.9-2.3,8.2-3.4,8.4-7.4c-0.1,3.6-2.7,6.6-5.9,8.7c1.9-0.5,3.9-1.1,5.6-2
				c5.1-2.5,9-9,6.1-13.1c-0.6-0.9-1.2,0.7-3.8,2c-2.2,1.1-5.1,1.6-6.2,2.2C269.2,50.8,267.7,55.1,268.7,58.6z"/>
			<path fill="#00A551" d="M238.4,52.7c-1,1.5-2.6,2.9-3.1,3.6c-1.6,2.5-0.6,6,1.8,8c0.8-2.6,3.9-5.1,2.1-7.9
				c1.6,2.5,1.4,5.4,0.2,7.9c1.1-1,2.1-2.1,2.8-3.3c2.2-3.5,1.7-9.2-2.2-11C239.2,49.6,239.6,50.9,238.4,52.7z"/>
			<path fill="#00A551" d="M208.6,69.9c-0.2,0.8,1.2,0.1,3.5,0.5c2,0.3,4,1.2,5,1.4c3.3,0.5,6.9-1.4,8.3-4c-3.1,0.1-6.9-1.6-9.5,0.8
				c2.2-2.1,5.6-2.8,8.8-2.6c-1.4-0.6-3-1-4.6-1.3C215.7,64,209.4,66.2,208.6,69.9z"/>
			<path fill="#99B52A" d="M205,55.6c1.2,1.4,1.9,3.3,2.5,4c2,2.3,6.1,3,9.2,2c-2.4-1.7-3.8-5.2-7.5-5c3.3-0.2,6.3,1.3,8.5,3.3
				c-0.6-1.3-1.4-2.5-2.3-3.6c-2.7-3.2-9-5.3-12.6-3.1C202,53.7,203.6,54,205,55.6z"/>
			<path fill="#99B52A" d="M189.5,78.9c-0.1,2.9,3,5.8,6.5,6.7c-0.7-2.7,1-6.2-2.6-8.1c3.1,1.6,4.6,4.5,4.9,7.3
				c0.5-1.3,0.9-2.8,0.9-4.2c0.2-4.1-3.6-9.2-8.7-9.3c-1.1,0,0,1-0.1,3.1C190.5,76.1,189.6,78,189.5,78.9z"/>
			<path fill="#00A551" d="M180.7,90.5c1.1,1.5,1.5,3.5,2,4.3c1.8,2.5,6.1,3.5,9.8,2.6c-2.3-2-3.2-5.7-7.3-5.6
				c3.7,0,6.7,1.7,8.7,3.9c-0.4-1.4-1-2.7-1.8-3.9c-2.4-3.5-8.9-6-13.2-3.9C177.8,88.3,179.4,88.7,180.7,90.5z"/>
			<path fill="#99B52A" d="M196.8,105c-1.1-1.1-2.3-2.1-3.6-2.9c-3.9-2.3-11-2.3-13.9,1.2c-0.6,0.8,1,0.5,3,1.7c1.7,1,3.1,2.7,4,3.2
				c2.8,1.7,7.3,1,10.2-1.1c-3-1-5.7-4-9.4-2.5C190.3,103.3,193.9,103.7,196.8,105z"/>
			<path fill="#99B52A" d="M209,105.7c0.3-1.4,0.6-2.8,0.5-4.2c-0.3-4.1-4.7-8.8-9.7-8.6c-1.1,0.1,0.1,1,0.3,3.1
				c0.1,1.8-0.6,3.7-0.5,4.6c0.2,2.9,3.6,5.5,7.3,6.1c-1-2.6,0.2-6.3-3.5-7.9C206.6,100.2,208.4,102.9,209,105.7z"/>
			<path fill="#99B52A" d="M206.2,115.1c-2,3.7-0.8,9.7,3.7,11.5c1,0.4,0.5-1,1.5-2.8c0.9-1.6,2.6-3,3-3.8c1.5-2.7-0.1-6.3-3-8.3
				c-0.6,2.7-3.7,5.4-1.4,8.3c-2.1-2.6-2.2-5.6-1.2-8.3C207.9,112.7,206.9,113.9,206.2,115.1z"/>
			<path fill="#00A551" d="M200.4,111.8c-1.6,0.1-3.3,0.3-4.9,0.8c-4.5,1.3-8.7,6.2-7.1,10.3c0.4,0.9,1.1-0.4,3.4-1.1
				c2-0.6,4.4-0.5,5.4-0.8c3.3-1,5.2-4.4,5-7.6c-2.7,1.5-7.2,1.5-7.9,5C194.8,115.2,197.4,113.1,200.4,111.8z"/>
			<path fill="#99B52A" d="M228.7,84.5c1.1-0.9,2.2-2,3.1-3.2c2.4-3.4,2.4-9.1-1.4-11.1c-0.8-0.4-0.6,0.9-1.8,2.6
				c-1.1,1.5-2.8,2.7-3.4,3.5c-1.8,2.4-1,6,1.3,8.1c1-2.5,4.3-4.9,2.6-7.8C230.6,79.1,230.1,82.1,228.7,84.5z"/>
			<path fill="#00A551" d="M223.2,92.2c-1.9-2-2.1-5.6-6.2-5.8c3.6,0.2,6.3,2,7.9,4.3c-0.2-1.3-0.5-2.6-1.1-3.8
				c-1.8-3.5-7.7-6.3-12.3-4.6c-1,0.4,0.5,0.9,1.4,2.6c0.8,1.5,0.8,3.4,1.2,4.2C215.4,91.6,219.5,92.8,223.2,92.2z"/>
			<path fill="#99B52A" d="M239.1,89.1c-1.3,1-3,1.6-3.6,2.1c-2.1,1.6-2.5,4.5-1.3,6.6c1.5-1.8,4.8-3.1,4.3-5.7
				c0.4,2.3-0.8,4.5-2.5,6.2c1.2-0.5,2.3-1.2,3.3-1.9c2.9-2.2,4.5-6.7,2-9C240.8,86.9,240.6,88,239.1,89.1z"/>
			<path fill="#99B52A" d="M263,62.9c-0.3-2.7,1.5-6-1.4-8c2.6,1.8,3.6,4.6,3.5,7.3c0.6-1.3,1-2.6,1.2-4c0.6-3.9-2.3-9.1-6.7-9.6
				c-1-0.1-0.1,1-0.4,3c-0.3,1.7-1.2,3.5-1.4,4.3C257.5,58.8,259.9,61.8,263,62.9z"/>
			<path fill="#99B52A" d="M275.7,74.9c2-3.6,1.1-9.3-2.9-10.9c-0.9-0.4-0.4,0.9-1.5,2.7c-0.9,1.6-2.4,3-2.9,3.8
				c-1.4,2.6-0.2,6,2.3,7.9c0.7-2.6,3.6-5.3,1.5-8c1.8,2.4,1.7,5.3,0.7,7.9C274.1,77.3,275,76.1,275.7,74.9z"/>
			<path fill="#00A551" d="M281.1,76.6c-0.6-0.6-0.8,0.7-2.6,2c-1.5,1.2-3.6,1.9-4.4,2.5c-2.5,1.9-2.9,5.5-1.5,8
				c1.8-2.2,5.7-3.7,5.1-6.8c0.6,2.8-0.8,5.5-3,7.5c1.4-0.6,2.8-1.4,4-2.3C282.2,84.9,284.1,79.4,281.1,76.6z"/>
			<path fill="#99B52A" d="M298.5,75c2-2,6.1-3.3,5.8-6.5c0.3,2.8-1.4,5.4-3.7,7.3c1.5-0.5,2.9-1.2,4.2-2c3.7-2.4,6.1-7.7,3.4-10.8
				c-0.6-0.7-0.9,0.6-2.8,1.9c-1.6,1.1-3.8,1.7-4.6,2.2C298.1,68.9,297.3,72.4,298.5,75z"/>
			<path fill="#99B52A" d="M306,94.8c2.3-1.8,6.5-2.6,6.7-5.8c-0.1,2.8-2.2,5.2-4.8,6.8c1.5-0.4,3.1-0.8,4.5-1.5c4-1.9,7.2-7,5-10.3
				c-0.5-0.7-1,0.5-3.1,1.5c-1.8,0.9-4,1.2-4.9,1.7C306.6,88.6,305.2,92.1,306,94.8z"/>
			<path fill="#99B52A" d="M292.7,102c1.3-0.8,2.5-1.7,3.5-2.8c2.9-3.1,3.8-8.7,0.3-11.1c-0.8-0.5-0.7,0.8-2.2,2.4
				c-1.3,1.4-3.2,2.4-3.9,3.1c-2.1,2.2-1.9,5.8,0,8.1c1.4-2.4,5-4.4,3.8-7.4C295.3,96.9,294.4,99.7,292.7,102z"/>
			<path fill="#99B52A" d="M291.4,78c0.9,2.2,0.1,4.5-1.3,6.4c1-0.7,2.1-1.4,2.9-2.3c2.4-2.5,3.1-7.2,0.3-9.2
				c-0.6-0.4-0.6,0.7-1.8,1.9c-1.1,1.1-2.6,2-3.2,2.5c-1.7,1.8-1.6,4.8,0,6.7C289.5,82.2,292.4,80.5,291.4,78z"/>
			<path fill="#99B52A" d="M286.9,110.4c0.6,1.2,1.4,2.5,2.4,3.6c2.8,3.1,9.1,5.2,12.6,2.9c0.8-0.5-0.8-0.8-2.2-2.4
				c-1.2-1.4-2-3.2-2.6-3.9c-2-2.3-6.2-2.9-9.3-1.9c2.4,1.7,3.9,5.2,7.6,4.9C292.2,113.8,289.1,112.3,286.9,110.4z"/>
			<path fill="#99B52A" d="M292.1,54.9c-1,2.7-3.7,4.6-6.6,5.5c1.6,0,3.2-0.2,4.8-0.5c4.5-1,9.1-5.2,7.9-8.9
				c-0.3-0.8-1.1,0.3-3.4,0.8c-2,0.5-4.3,0.3-5.2,0.6c-3.2,0.7-5.5,3.8-5.6,6.6C286.7,57.8,291,57.9,292.1,54.9z"/>
			<path fill="#99B52A" d="M281.6,72.2c0.8-0.4,1.7-0.8,2.4-1.4c2.1-1.6,3.2-4.9,1.4-6.6c-0.4-0.4-0.5,0.4-1.6,1.2
				c-0.9,0.7-2.2,1.2-2.6,1.5c-1.5,1.1-1.8,3.3-0.9,4.8c1.1-1.3,3.5-2.2,3.1-4.1C283.8,69.4,282.9,71,281.6,72.2z"/>
			<path fill="#99B52A" d="M250.4,52.2c0.7-2.3,3.5-4.6,1.9-7.1c1.5,2.2,1.2,4.9,0.2,7.1c1-0.9,1.9-1.9,2.6-3c2-3.1,1.6-8.3-1.9-9.9
				c-0.8-0.4-0.5,0.8-1.5,2.4c-0.9,1.4-2.4,2.6-2.8,3.3C247.4,47.3,248.3,50.4,250.4,52.2z"/>
			<path fill="#00A551" d="M273.1,40.7c0.2,2.5-1.3,4.8-3.5,6.5c1.3-0.5,2.7-1,3.8-1.8c3.4-2.1,5.6-6.9,3.3-9.6
				c-0.5-0.6-0.8,0.6-2.5,1.6c-1.5,0.9-3.5,1.4-4.2,1.9c-2.5,1.5-3.2,4.7-2.2,7.1C269.7,44.6,273.4,43.5,273.1,40.7z"/>
			<path fill="#00A551" d="M246.7,36.3c0.6,2.3-0.5,4.5-2.2,6.2c1.1-0.6,2.2-1.2,3.2-2c2.7-2.2,4-6.8,1.5-9c-0.6-0.5-0.7,0.6-2,1.7
				c-1.2,1-2.9,1.7-3.5,2.2c-2,1.6-2.2,4.5-0.9,6.6C244.1,40.2,247.3,38.9,246.7,36.3z"/>
			<path fill="#99B52A" d="M232.5,44.2c0.9,2.2,3.8,3.7,6.6,3.6c-1.3-1.9-1.4-4.9-4.3-5.5c2.6,0.6,4.5,2.4,5.6,4.4
				c-0.1-1.1-0.3-2.2-0.7-3.3c-1.2-3.1-5.4-6.1-8.8-5.1c-0.8,0.2,0.3,0.8,0.9,2.3C232.3,41.9,232.2,43.5,232.5,44.2z"/>
			<path fill="#00A551" d="M194.9,63c1.1,1.1,1.8,2.6,2.3,3.1c1.8,1.8,5.2,2.1,7.7,1.2c-2.1-1.3-3.4-4-6.5-3.7
				c2.7-0.3,5.2,0.7,7.1,2.2c-0.6-1-1.3-2-2.1-2.8c-2.5-2.4-7.7-3.8-10.5-1.8C192.4,61.6,193.7,61.7,194.9,63z"/>
			<path fill="#99B52A" d="M259.7,39.1c0.7,1.8,3.2,3,5.4,3c-1.1-1.5-1.1-4-3.6-4.5c2.2,0.5,3.7,1.9,4.6,3.6
				c-0.1-0.9-0.2-1.9-0.6-2.7c-1-2.5-4.5-5-7.3-4.2c-0.6,0.2,0.3,0.6,0.8,1.9C259.5,37.2,259.5,38.5,259.7,39.1z"/>
			<path fill="#00A551" d="M208.9,47.3c1.2,0.6,2.1,1.7,2.7,2c1.9,1,4.7,0.6,6.4-0.6c-2-0.6-3.9-2.5-6.1-1.6c2-0.8,4.3-0.5,6.3,0.3
				c-0.7-0.7-1.6-1.3-2.5-1.8c-2.6-1.4-7.2-1.4-8.8,0.7C206.5,46.7,207.5,46.6,208.9,47.3z"/>
			<path fill="#00A551" d="M213.5,77.8c0.2-0.1,0.4-0.2,0.5-0.3c-1.5-0.5-2.8-1.8-4.4-2c-0.5,0-1.1,0.1-1.6,0.2
				C210.3,75.1,211.8,76.9,213.5,77.8z"/>
			<path fill="#00A551" d="M212,74.7c0.5,0.4,1,0.8,1.4,1.2c0.3,0.1,0.6,0.2,0.9,0.4c-0.7-0.7-1.5-1.4-2.4-1.9
				c-1.4-0.9-3.5-1.3-5.3-1.2C208.5,73.1,210.6,73.7,212,74.7z"/>
			<path fill="#00A551" d="M205,75.7c-1-0.7-1.8-0.8-1.9-1.1c0,0,0,0,0,0c-0.4,0.5,0.7,0.4,2,1.2c0.3,0.2,0.5,0.4,0.8,0.6
				C205.6,76.1,205.3,75.9,205,75.7z"/>
			<path fill="#00A551" d="M254.7,61.6c0.3-0.7,0.6-1.5,0.7-2.3c0.3-2.2-1.3-5.2-3.8-5.4c-0.5-0.1,0,0.6-0.2,1.7
				c-0.1,1-0.7,2-0.8,2.5c-0.2,1.6,1.2,3.3,2.9,3.9c-0.2-1.5,0.8-3.4-0.8-4.5C254.1,58.5,254.7,60.1,254.7,61.6z"/>
			<path fill="#99B52A" d="M264.5,96.9c-0.2-0.9-0.4-1.8-0.8-2.7c-1.2-2.4-4.9-4.7-7.7-3.7c-0.6,0.2,0.3,0.6,1,1.9
				c0.5,1.1,0.6,2.4,0.9,2.9c0.9,1.8,3.5,2.8,5.7,2.6c-1.2-1.5-1.5-3.9-4-4.3C261.8,94,263.5,95.3,264.5,96.9z"/>
			<path fill="#00A551" d="M263.6,85.6c0.3-0.9,0.6-1.8,0.7-2.7c0.2-2.7-1.9-6.1-4.9-6.2c-0.7,0,0,0.7-0.1,2c-0.1,1.2-0.7,2.4-0.7,3
				c-0.2,1.9,1.6,3.8,3.7,4.5c-0.3-1.8,0.7-4.1-1.3-5.4C262.7,81.9,263.5,83.8,263.6,85.6z"/>
			<path fill="#00A551" d="M240.7,110.5c0.7-0.7,1.3-1.5,1.8-2.3c1.3-2.4,0.8-6.2-1.9-7.3c-0.6-0.2-0.3,0.6-1,1.8
				c-0.6,1.1-1.7,2-2,2.5c-1,1.7-0.1,4.1,1.5,5.3c0.4-1.8,2.4-3.6,1.1-5.4C241.5,106.8,241.4,108.8,240.7,110.5z"/>
			<path fill="#00A551" d="M209.3,86.8c-0.8-2.6-4.2-5.2-7.1-4.5c-0.6,0.1,0.2,0.6,0.7,1.9c0.4,1.1,0.3,2.4,0.5,3
				c0.6,1.9,3,3.1,5.3,3.2c-1-1.6-0.9-4.1-3.3-4.7c2.1,0.5,3.6,2.1,4.4,3.8C209.7,88.7,209.5,87.7,209.3,86.8z"/>
			<path fill="#00A551" d="M206.6,73.1c-1.3,0-2.6,0.4-3.4,1.2c-0.1,0.1-0.1,0.2-0.1,0.2C203.9,73.7,205.1,73.2,206.6,73.1z"/>
			<path fill="#00A551" d="M208,75.7c0.6-0.2,1.1-0.2,1.6-0.2c1.6,0,3.2,0.5,4.6,1.2c-0.2-0.3-0.5-0.6-0.8-0.9
				C211.7,75.3,209.8,75.1,208,75.7z"/>
			<path fill="#00A551" d="M213.8,78c-0.1,0-0.2-0.1-0.3-0.2c-1.8,0.9-4.2,1-5.9,0c-0.4-0.3-1-0.9-1.8-1.5c0.7,0.6,1.2,1.3,1.6,1.6
				C209.1,79.2,212,79.1,213.8,78z"/>
			<path fill="#99B52A" d="M207.6,77.9c1.7,1,4.1,0.9,5.9,0c-1.7-0.9-3.2-2.7-5.5-2.1c0.5-0.1,1.1-0.2,1.6-0.2c-0.5-0.1-1,0-1.6,0.2
				c1.8-0.6,3.7-0.4,5.4,0.2c-0.4-0.4-0.9-0.8-1.4-1.2c-1.4-1-3.5-1.6-5.4-1.5c-1.4,0.1-2.7,0.6-3.4,1.4c0.1,0.2,1,0.4,1.9,1.1
				c0.3,0.2,0.5,0.4,0.8,0.7C206.6,76.9,207.2,77.6,207.6,77.9z"/>
			<path fill="#99B52A" d="M218.9,117.3c-1.2,2.5-0.4,6.3,2.4,7.2c0.6,0.2,0.3-0.6,0.9-1.9c0.5-1.1,1.5-2.1,1.8-2.6
				c0.9-1.8-0.1-4.1-1.9-5.2c-0.3,1.8-2.2,3.7-0.7,5.4c-1.3-1.5-1.4-3.5-0.8-5.3C219.9,115.6,219.3,116.4,218.9,117.3z"/>
			<path fill="#00A551" d="M285.2,94.7c0.7-0.7,1.4-1.5,1.9-2.3c1.4-2.4,1-6.2-1.6-7.4c-0.6-0.3-0.3,0.6-1.1,1.8
				c-0.6,1-1.7,2-2.1,2.5c-1,1.7-0.3,4,1.3,5.4c0.5-1.7,2.6-3.5,1.3-5.4C286.1,91,286,93,285.2,94.7z"/>
			<path fill="#99B52A" d="M271.1,111.8c-0.9,0.5-1.7,1.2-2.4,1.9c-1.9,2.1-2.5,5.9-0.1,7.5c0.5,0.3,0.5-0.5,1.5-1.6
				c0.9-0.9,2.2-1.6,2.6-2.1c1.4-1.5,1.2-3.9-0.1-5.5c-0.9,1.6-3.3,3-2.5,5C269.4,115.2,270,113.3,271.1,111.8z"/>
			<path fill="#00A551" d="M304,86.9c0.8-0.6,1.6-1.3,2.2-2c1.8-2.2,2.1-6-0.3-7.5c-0.5-0.3-0.4,0.6-1.4,1.7c-0.8,1-2.1,1.7-2.5,2.2
				c-1.3,1.6-1,4,0.4,5.5c0.8-1.7,3.1-3.1,2.2-5.1C305.5,83.4,305,85.3,304,86.9z"/>
			<path fill="#99B52A" d="M311.9,80.3c1-0.1,2-0.2,3-0.5c2.7-0.9,5-4,3.7-6.5c-0.3-0.6-0.7,0.3-2,0.7c-1.2,0.4-2.7,0.4-3.2,0.6
				c-2,0.6-2.9,2.8-2.6,4.9c1.6-1,4.3-1,4.6-3.2C315.1,78.1,313.6,79.5,311.9,80.3z"/>
			<path fill="#00A551" d="M285.2,114.4c0.1-2.2-1.9-4.3-4.3-5c0.4,2-0.7,4.7,1.6,6.1c-2.1-1.2-3-3.4-3.2-5.4
				c-0.4,1-0.6,2.1-0.7,3.1c-0.2,3,2.3,6.9,5.7,7c0.7,0,0-0.8,0.1-2.3C284.5,116.5,285.2,115.1,285.2,114.4z"/>
			<path fill="#00A551" d="M319.7,98c-1.6-1.5-4.6-1.2-6.6,0.2c1.8,0.9,3.2,3.5,5.7,2.6c-2.3,0.8-4.5,0.2-6.2-1
				c0.5,0.9,1.2,1.8,2,2.5c2.2,2,6.8,2.5,9.1,0c0.5-0.6-0.6-0.5-1.7-1.5C320.9,99.8,320.2,98.5,319.7,98z"/>
			<path fill="#00A551" d="M307,103c0.1-2.2-1.9-4.3-4.3-5c0.4,2-0.7,4.7,1.6,6.1c-2.1-1.2-3-3.4-3.2-5.4c-0.4,1-0.6,2.1-0.7,3.1
				c-0.2,3,2.3,6.9,5.7,7c0.7,0,0-0.8,0.1-2.3C306.3,105,306.9,103.7,307,103z"/>
			<path fill="#99B52A" d="M314.8,108.4c0.1-2.2-1.6-4.3-3.7-5c0.4,2-0.6,4.7,1.4,6.1c-1.8-1.2-2.6-3.4-2.7-5.4
				c-0.3,1-0.5,2.1-0.6,3.1c-0.2,3,2,6.9,4.9,7c0.6,0,0-0.8,0.1-2.3C314.2,110.4,314.7,109,314.8,108.4z"/>
			<path fill="#00A551" d="M296.4,61.1c-1.1,0.7-2.5,1.2-3,1.6c-1.8,1.2-2.2,3.6-1.3,5.4c1.3-1.4,4-2.4,3.7-4.5
				c0.3,1.9-0.8,3.7-2.3,5c1-0.4,1.9-0.9,2.8-1.4c2.4-1.7,3.8-5.4,1.9-7.3C297.8,59.4,297.6,60.3,296.4,61.1z"/>
			<ellipse fill="#603813" cx="248.1" cy="67.3" rx="5.1" ry="4.3"/>
			<ellipse fill="#603813" cx="277.7" cy="97.3" rx="3.9" ry="3.3"/>
			<ellipse fill="#603813" cx="218.6" cy="101.9" rx="3.8" ry="3.2"/>
			<path fill="#603813" d="M281.4,103.4c-21.4,0-10.3,8.5-10.3-9.7c0-6-2.1-12.1-6.5-16.9c1.8,3.8,3.6,7.8,3.3,11.9
				c-0.7,9.5-14.9,39.1-13.3,2.5c0.6-12.5,4.7-24.5,20.1-29.7C262.1,62,251.5,72,248.1,81.8c-4.5-9.8-13.7-16.2-23.2-22.2
				c13.8,14.8,22.5,21.8,22.6,43c0.1,30.1-15.1,9.4-15.1-4.6c0-5.3,1.5-10.7,4.3-15.2c-5.1,3.6-9.8,9.6-9.8,17.4
				c0.2,18.6,9.9,6-16.6,7.7c-37.2,2.4,28.4-2.6,30.6,23.5c0.1,1.4,2.9,12.4-1.9,24.5c-0.4,0-0.9,0.1-1.3,0.1
				c-1.3,0.1-2.4,0.3-3.6,0.7c-1.2,0.4-2.5,0.9-3.8,1.1c-1.3,0.2-2.6,0.6-3.9,1c-0.8,0.3-1.7,0.4-2.6,0.4c-1.7,0.1-3.4,0-5,0
				c-0.8,0-1.6,0.2-2.4,0.3c-0.3,0.1-0.5,0.3-0.8,0.4c0,0.1,0.1,0.1,0.1,0.2c0.2,0,0.3,0.1,0.5,0c2-0.5,4.1-0.3,6.2-0.2
				c1.7,0.1,3.3,0,4.8-0.6c1-0.4,2-0.3,3-0.2c-0.3,0.3-0.6,0.6-1,0.8c-0.9,0.3-1.8,0.7-2.7,0.8c-2.3,0.4-4.7,0.7-7.1,1
				c-1.2,0.2-2.4,0.4-3.5,1c-1,0.5-2,1-3.1,1.4c-0.3,0.2-0.7,0.3-1.1,0.5c-0.8,0.3-1.1,0.9-1.3,1.6c-0.1,0.4-0.3,0.7-0.4,1.1
				c0,0.1,0,0.2,0,0.4c0.1,0,0.3,0,0.4-0.1c0.6-0.3,1-0.7,1.2-1.3c0.2-0.6,0.6-1,1.2-1.2c1.6-0.7,3.3-1.5,4.9-2.1
				c0.8-0.3,1.8-0.4,2.7-0.5c1-0.1,2.1,0,3.1,0c1.1,0,2.2-0.2,3.4,0.2c-0.5,0.2-0.9,0.4-1.2,0.6c-1,0.6-2,1.2-3.2,1.4
				c-0.5,0.1-0.9,0.4-1.3,0.6c-0.5,0.2-0.7,0.5-0.3,0.9c-2.6,0.9-2.6,0.9-2.7,1.6c1.6-0.3,3-1.1,4.7-0.9c-0.6,1.2-1.3,2.3-2.6,3
				c-0.2,0.1-0.3,0.3-0.5,0.5c0.2,0.1,0.3,0.1,0.4,0.1c1.2-0.2,2.3-0.6,2.8-1.7c0.1-0.3,0.3-0.6,0.5-0.9c0.2-0.3,0.5-0.6,0.8-0.8
				c0.5-0.3,1.5-0.2,1.7,0.1c0.3,0.6,0.6,1.2,0.8,1.7c-0.6,0.3-1.1,0.6-1.6,1c-0.1,0.1,0,0.3-0.1,0.4c0.1,0,0.3,0,0.4,0
				c0.3-0.1,0.5-0.3,0.8-0.4c-0.1,1.6,0.7,2.4,1.8,2.1c-0.5-1.2-0.5-1.3,0.1-2.1c1.8,0,3.7,0.1,5.6,0.1c-0.4,0.3-0.7,0.5-1,0.6
				c-0.9,0.5-1.8,0.9-2.6,1.4c-1.4,0.8-1.4,2.8-0.1,3.7c0.1,0.1,0.4,0.1,0.6,0.1c0-0.2,0.1-0.3,0-0.5c-0.7-1.4-0.5-2.1,1.1-3
				c1-0.5,2-0.9,3.1-1.4c0.2,0.2,0.3,0.4,0.6,0.6c0.1,0.1,0.4,0.1,0.6,0.1c0-0.2,0.1-0.4,0-0.5c-0.5-0.9-0.4-1.4,0.7-1.9
				c0.6-0.2,1.3-0.4,1.9-0.5c0.8-0.2,1.2,0.2,0.9,0.9c-0.2,0.4-0.4,0.8-0.6,1.1c-0.6,0.9-0.6,1.9-0.1,2.9c0.3,0.4,0.5,0.9,0.8,1.3
				c0.3,0.6,0.4,1.2,0,1.8c-0.1,0.1,0,0.2-0.1,0.4c0.2,0,0.4,0,0.5-0.1c0.9-0.5,1.4-1.6,1-2.5c-0.2-0.5-0.5-1-0.9-1.5
				c-0.6-0.8-0.6-1.6,0.2-2.4c0.7-0.6,1-1.3,0.7-2.2c0.5-0.2,1-0.3,1.5-0.5c0.5-0.2,1-0.5,1.5-0.6c0.4-0.1,1-0.2,1.4,0
				c0.7,0.4,1.2,0.9,1.9,1.5c-1.9,0.8-2.4,1.7-1.7,2.8c0.1-0.1,0.3-0.2,0.4-0.3c0.3-0.6,1-1,1.7-1.3c0.6-0.3,1.1-0.2,1.6,0.2
				c0.4,0.3,0.8,0.6,0.5,1.1c-0.1,0.1,0.1,0.3,0.2,0.4c0.1,0,0.4,0,0.5-0.1c0.2-0.2,0.3-0.4,0.4-0.7c0.2-0.7-0.4-1.1-0.9-1.5
				c1.9-0.9,2.4-1.9,1.2-3.6c0.5,0.1,0.9,0.2,1.4,0.2c1.3,0.1,1.8,1,2.4,1.8c0.1,0.2,0.2,0.4,0.1,0.6c-0.2,0.7-0.5,1.4-1.3,1.8
				c-1.1,0.5-1.7,1.3-2,2.3c-0.3,0.8-0.7,1.4-1.4,2c-0.8,0.6-1.1,1.4-0.7,2.4c0.1,0.2,0.3,0.4,0.5,0.4c0.4,0,0.4-0.3,0.3-0.6
				c-0.2-0.4-0.1-0.8,0.2-1.1c1.2-0.9,1.9-2.1,2.7-3.3c0.7-1,1.1-1.1,2.1-0.2c0.8,0.7,1.7,1,2.7,1.2c0.4,0.1,0.9,0.2,1.3,0.3
				c1.9,0.4,2.5,1.6,1.8,3c-0.1,0.2-0.2,0.4-0.2,0.6c0.1,0,0.1,0.1,0.2,0.1c0.2-0.2,0.5-0.3,0.6-0.5c0.8-1,0.8-2,0.1-3
				c-0.5-0.7-1.3-1.1-2.2-1.4c-0.7-0.2-1.5-0.3-2.2-0.6c-0.5-0.2-0.9-0.4-1.3-0.7c-0.4-0.3-0.5-0.7-0.3-1.1c0.2-0.4,0.4-0.8,0.6-1.2
				c0.4-0.8,0.3-1.5-0.2-2.2c-0.5-0.7-0.4-0.9,0.3-1.4c0.1-0.1,0.3-0.2,0.5-0.3c0.6-0.3,1-0.8,0.9-1.4c0-0.1,0-0.3,0.1-0.4
				c0.4,0,0.9,0.1,1.3,0.1c1,0,1.6,0.5,1.6,1.4c0,0.5-0.2,1-0.3,1.5c-0.4,1.1-0.1,1.6,1.1,1.9c0.3,0.1,0.7,0.1,1,0.2
				c-0.4,0.3-0.7,0.7-1,1c-0.8,1-0.2,1.9,0.9,2.3c0.1,0.1,0.3,0,0.4-0.1c0.1,0,0.1-0.2,0.1-0.3c-0.6-0.7,0-1.2,0.4-1.7
				c0.2-0.2,0.5-0.4,0.6-0.7c0.3-0.5,0.7-0.5,1.2-0.3c1.7,0.6,2.7,2.1,2.2,3.6c-0.3,1-0.3,2-0.1,3c0.1,0.5,0,1.1-0.1,1.6
				c0,0.2,0,0.4-0.1,0.5c0.2-0.1,0.5-0.1,0.6-0.2c0.7-0.6,1.1-1.3,0.8-2.1c-0.4-1.1-0.4-2.1,0.1-3.1c0.2-0.3,0.1-0.8,0.2-1.1
				c0-0.2,0-0.4,0.1-0.6c2.3-0.1,3.6,0.1,5.2,0.8c0.3,0.1,0.6,0.6,0.9,0.2c0.1-0.1-0.1-0.5-0.3-0.9c0.2-0.1,0.5-0.3,0.7-0.5
				c0.8-0.7,0.7-1.6-0.3-2.1c-0.9-0.4-1.8-0.7-2.7-1c-0.7-0.3-1.5-0.5-2.2-0.7c2-0.1,4-0.1,6-0.2c0.3,0,0.7,0.1,0.9,0.3
				c0.6,0.4,1.2,0.8,1.8,1.2c0.8,0.4,1,1.1,1.2,1.8c0.1,0.5,0.4,0.9,0.7,1.4c0.1,0.1,0.3,0.1,0.4,0.2c0-0.2,0.2-0.3,0.1-0.5
				c-0.1-0.5-0.2-1.1-0.3-1.6c-0.1-0.8-0.5-1.5-1.3-2c-0.4-0.2-0.8-0.5-1.2-0.8c0-0.1,0.1-0.1,0.1-0.2c0.9,0.2,1.8,0.4,2.6,0.7
				c0-0.1,0.1-0.1,0.1-0.2c-0.2-0.2-0.4-0.4-0.7-0.5c-0.6-0.2-1.2-0.3-1.8-0.5c-0.6-0.1-1.2-0.1-1.7-0.4c-0.4-0.2-0.8-0.6-1.2-0.9
				c1.4,0.2,2.8,0.1,4.2-0.1c1.4-0.2,2.6,0,3.4,1c0.8,1,2,1.3,3.3,1.5c0.2,0,0.4-0.1,0.6-0.2c0-0.1,0-0.1,0-0.2
				c-1.4-0.4-2.4-1.1-3.3-2c-1.1-1.1-2.4-1.1-3.9-1c-1,0.1-2.1,0.1-3.1,0.1c-0.3,0-0.8-0.2-1-0.5c-0.6-0.6-1-1.2-1.5-1.7
				c0.8-0.1,1.2,0,2,0.3c0.2,0.1,0.4,0.1,0.6,0.1c0.3,0,0.6-0.1,0.8,0c1.4,0.3,2.7,0.8,4.1,1.1c1.3,0.3,2.6,0.3,3.8,0.8
				c0.1,0.1,0.4-0.1,0.6-0.1c0-0.1,0-0.2,0-0.2c-2.4-0.9-5.2-1.1-7.5-2.3c0.7,0,1.5-0.1,2.3-0.1c1.7,0,3.4,0.2,5.2,0.2
				c0.5,0,1-0.1,1.5-0.4c-0.7-0.2-1.3-0.2-1.9-0.1c-1,0.2-1.9,0-2.8-0.1c-1.2-0.2-2.4-0.4-3.7-0.2c-1.4,0.3-2.8,0.1-4.3-0.1
				c-0.4-0.1-0.7-0.1-1.1-0.1c-1.8,0-3.7,0-5.5,0c-0.5,0-1-0.1-1.4-0.3c-0.5-0.2-1.1-0.4-1.6-0.5c-1.1-0.2-2.1-0.6-2.9-1.2
				c2.2,0,4.4,0,6.6,0c1.1,0,2.1,0,3.2,0c0.8,0,1.5,0.2,2.3,0.2c0.2,0,0.3-0.1,0.5-0.2c-0.1-0.1-0.2-0.2-0.4-0.3
				c-0.6-0.1-1.1-0.3-1.7-0.3c-2-0.1-3.9-0.1-5.9-0.2c-1.3-0.1-2.5-0.2-3.8-0.4c-1.4-0.3-2.7-0.5-4.1-0.7
				c-7.3-10.6-5.1-22.6-4.4-25.7c3.6-17.1,20.7-24.3,26.8-24.5c5.7-0.2,9.5,0.7,13.2,2.1C301.4,109.9,290.9,103.4,281.4,103.4z
				 M238.5,157.1c0.6,0,1.1-0.1,1.7,0c-0.6,0.3-1.3,0.5-2,0.6c-1.2,0.2-2.5,0.3-3.8,0.2C235.3,157.6,236.9,157.3,238.5,157.1z
				 M226.6,161.7c0.4-0.1,0.6-0.1,0.8-0.2c1-0.3,2-0.6,3.1-1c0.6-0.2,1.1-0.7,1.3-1.2c0.2-0.5,0.5-0.7,1.1-0.7
				c1.3,0.1,2.6,0.2,4,0.2c0.3,0,0.5,0,0.8,0c0.7,0,1.4-0.1,2.1-0.2c0.3,0,0.6-0.1,0.9-0.1c0.4,0,0.8-0.1,1.2-0.2c0,0,0,0.1,0,0.1
				c-0.7,0.2-1.3,0.4-2,0.7c-1.3,0.4-2.6,0.7-3.9,1.1c-0.5,0.2-1,0.3-1.4,0.7c-0.6,0.6-1.4,0.6-2.2,0.5c-1.2-0.2-2.3,0-3.4,0.3
				C228.3,162,227.5,162,226.6,161.7z M239.8,161.4c-0.9,0.1-1.8,0.2-2.7,0.2c0-0.1,0-0.1,0-0.2c1-0.5,2.1-0.8,3.3-0.8
				C240.4,161.1,240.2,161.3,239.8,161.4z M234.9,163.9c-1.1,0.7-2.2,0.4-3.3,0.4c0.6-0.7,1.4-1.1,2.4-1.3
				C234.3,163.3,234.6,163.6,234.9,163.9z M226.6,165.8c-0.5,0.1-1,0.2-1.6,0.2c-1.2,0.1-2.4,0.1-3.7,0.2c0.3-0.4,0.7-0.6,1.2-0.7
				c0.5-0.2,1.1-0.2,1.6-0.4c0.6-0.2,1.2-0.5,1.9-0.7c1.5-0.6,3.1-1.1,4.6-1.7c0.2-0.1,0.4,0,0.7-0.1
				C230.1,164.1,228.8,165.4,226.6,165.8z M238.1,166c-0.4,0.5-1,0.8-1.7,0.9c-1,0.1-1.7,0.5-2,1.3c-0.3,0.8-1.1,1-2,1
				c-1.2,0-2.4-0.1-3.7-0.1c-0.2,0-0.4-0.1-0.5-0.3c-0.2-0.3-0.3-0.7-0.5-1.2c1.6,0,2.4-0.7,2.9-1.8c0.2-0.4,0.4-0.6,0.9-0.6
				c1.3-0.1,2.7-0.3,4-0.4c0.1,0,0.2,0,0.2,0c1.5-0.3,1.5-1,0.9-1.7c-0.1-0.1-0.1-0.2-0.1-0.2c1.5-0.2,2.9-0.4,4.4-0.4
				c0.6,0,1.2,0.3,1.7,0.5c0.3,0.2,0,0.5-0.2,0.6c-0.6,0.4-0.8,0.9-0.6,1.5c-0.6,0-1.2-0.1-1.8-0.1
				C239.3,165.2,238.6,165.4,238.1,166z M241,167.8c-0.6,0.2-0.8,0-1-0.4c-0.2-0.4-0.1-0.7,0.3-0.8c0.9-0.2,1.9-0.2,2.9,0
				C242.7,167.5,241.8,167.5,241,167.8z M243.1,161.9c0.8-0.7,1.6-1.4,2.4-2c0.7-0.5,1.6-0.9,2.6-0.5c0.9,0.3,1.1,1.2,0.4,1.7
				c-0.5,0.3-1,0.5-1.6,0.7c-0.6,0.2-1.3,0.4-2,0.6C244.1,162.6,243.7,162.1,243.1,161.9z M248.5,168.8c-0.6-1.3-1.9-2-3.3-2.5
				c-0.4-0.1-0.7-0.4-0.4-0.8c0,0,0-0.1,0-0.1c0-0.5-0.1-1.1,0.5-1.4c0.8-0.4,1.8-0.7,2.7-1c0.2-0.1,0.5,0.1,0.9,0.2
				c-0.5,0.4-0.9,0.9-0.7,1.4c0.3,0.7,0.7,1.4,1.1,2.1c0,0,0.1,0.1,0.1,0.1C250.2,167.7,250.1,168.2,248.5,168.8z M255.5,164.5
				c-1.6,1.1-1.6,1.1-3.6,0.6c-0.2,0-0.4-0.1-0.7-0.2c0.2-0.7,0.5-1.3,0.6-1.9c0.1-0.3-0.1-0.6-0.3-0.9c-0.5-0.8-0.3-1.2,0.7-1.4
				c1.2-0.2,1.5-0.1,2.1,0.8c0.2,0.3,0.6,0.6,0.9,0.9c0.1,0.1,0.3,0.2,0.4,0.2C256.4,163.4,256.4,163.9,255.5,164.5z M273.3,168.2
				c0.2,0.1,0.4,0.2,0.6,0.3c0.9,0.5,1,0.9,0.4,1.7c-1-0.3-1.9-0.6-2.8-0.7c-0.8-0.1-1.6-0.1-2.4-0.2c-0.6-0.1-1.2-0.3-1.6-0.7
				c-0.7-0.6-1.5-1-2.5-1.1c-0.5,0-0.7-0.2-0.9-0.5c-0.2-0.3-0.5-0.5-0.7-0.8c-0.3-0.3-0.2-0.6,0.1-0.9c0.2-0.1,0.4-0.3,0.7-0.4
				c0.9-0.1,1.7-0.2,2.6-0.1c0.6,0,1.1,0.4,1.3,0.9c0.4,1,1.2,1.4,2.4,1.7C271.4,167.7,272.3,168,273.3,168.2z M266,160.7
				c1,0,2-0.1,2.9,0.4c0.8,0.4,1.7,0.5,2.6,0.3c1.3-0.2,2.1,0.4,2.7,1.2c0.4,0.4,0.7,0.8,1,1.3c-0.6-0.1-1.3-0.1-2-0.2
				c-1.3-0.2-2.7-0.4-4-0.8c-0.9-0.2-1.7-0.7-2.5-1.1c-0.4-0.2-0.6-0.6-0.9-0.9C265.9,160.8,266,160.8,266,160.7z M268.2,163.6
				c1.8,0.4,3.7,0.7,5.5,1.1c0.7,0.1,1.5,0.2,2.1,0.8c-0.2,0-0.4,0.1-0.6,0.1c-1.3,0-2.7-0.1-4-0.1c-0.6,0-1.1-0.3-1.5-0.7
				c-0.4-0.6-1.1-0.8-1.9-0.9c-1.2-0.1-2.3-0.3-3.2-1c-0.4-0.3-1.1-0.4-1.7-0.4c-0.9,0-1.6-0.2-2.3-0.6c-0.9-0.5-1.9-0.8-2.8-1.2
				c-0.8-0.4-1.4-1-2.1-1.5c-0.1-0.1-0.1-0.4-0.1-0.6c0.2,0,0.5,0,0.7,0.1c0.3,0.1,0.5,0.2,0.7,0.4c1.6,1,3.5,1.4,5.4,1.6
				c0.6,0.1,1.3,0.1,1.9,0.2C264.9,162.4,266.4,163.2,268.2,163.6z M263.5,159.4c-0.9,0.3-3-0.4-4.2-1.3
				C260.9,158.2,262.1,158.8,263.5,159.4z"/>
			<path fill="#603813" d="M237.7,158.9c0.7,0,1.4-0.1,2.1-0.2c-1.2,0.6-2.1,1-2.5,1C237.4,159.4,237.5,159.1,237.7,158.9z"/>
			<path fill="#603813" d="M240.2,157.1c-0.6,0.3-1.3,0.5-2,0.6c0.1-0.2,0.2-0.4,0.3-0.6C239,157.1,239.6,157.1,240.2,157.1z"/>
		</g>
	</g>
</g>
</svg>
